<?xml version="1.0" encoding="UTF-8"?>
<svg id="Layer_1" data-name="Layer 1" xmlns="http://www.w3.org/2000/svg" viewBox="0 0 308.38 297.77">
  <defs>
    <style>
      .cls-1 {
        fill: none;
      }

      .cls-2 {
        fill: #64bcc1;
      }

      .cls-3 {
        fill: #e44265;
      }

      .cls-4 {
        fill: #f5be6d;
      }

      .cls-5 {
        fill: #727b84;
      }

      .cls-6 {
        fill: #a7c45f;
      }
    </style>
  </defs>
  <path class="cls-5" d="M23.37,282.02c19.87,5.39,40.5,8.92,61.14,7.62,20.87-1.32,40.92-8.23,60.44-15.35,16.88-6.16,33.48-14.29,50.63-20.21,7.13-2.46,37.16-14.4,41.1-2.22,2.6,8.03-9.63,17.02-21.37,22.86-1.4.7-2.87,1.55-4.38,1.67.73-1.95,4.46-5.49,3.54-7.73-3.11-7.57-24.33,2.35-28.84,4.16-35.53,14.23-73.89,27.19-112.66,24.64-11.19-.74-22.29-2.69-33.04-5.88-5.52-1.63-10.95-3.59-16.26-5.83-3.05-1.29-7.04-3.27-10.35-5.38-3.31-2.11,7.19.89,10.03,1.66Z"/>
  <path class="cls-1" d="M109.44,153.08c.46,1.64.88,3.37,1.28,5.14h39.98"/>
  <path class="cls-1" d="M118.55,223.54c6.39-2.58,11.98-4.97,15.54-6.66,1.14-2.93,2.42-6.24,3.77-9.83-.7.2-1.33.36-2.06.57-5.77,1.7-11.64,4.17-17.31,6.98.09,2.92.1,6.03.07,8.94Z"/>
  <path class="cls-1" d="M186.55,40.83c-2.88-4.5-7.75-9.65-19.19-10.35-8.22-.51-24.16,2.26-23.37,3.49l42.56,6.86Z"/>
  <path class="cls-1" d="M174.93,189.26c-.15.07-.33.12-.48.19,0,.04,0,.08,0,.12.16-.11.32-.21.47-.32Z"/>
  <path class="cls-1" d="M152.44,78.96l23.39,3.25s-23.75-4.6-23.39-3.25Z"/>
  <path class="cls-1" d="M103.91,58.06l41.35,6.04c.37-1.03-37.37-7.66-41.35-6.04Z"/>
  <path class="cls-1" d="M149.73,102.55c.14-.72.19-1.43.24-2.13-2.37-2.85-6.99-5.46-16.24-5.81-11.63-.44-24.56,4.88-31.57,8.29l46.87,3.49c.23-1.3.46-2.6.7-3.84Z"/>
  <path class="cls-1" d="M80.6,236.84c.81-2.17,2.87-6.69,4.22-10.48-.79.1-2.76.59-3.59.71-9.85,1.44-23.05,9.82-32.64,15.1,10.9-1.02,22.96-3.64,30.44-4.98.45-.08,1.03-.22,1.57-.35Z"/>
  <path class="cls-1" d="M118.48,214.6c.09,2.92.1,6.03.07,8.94,6.39-2.58,11.98-4.97,15.54-6.66,1.14-2.93,2.42-6.24,3.77-9.83-.7.2-1.33.36-2.06.57-5.77,1.7-11.64,4.17-17.31,6.98Z"/>
  <path class="cls-1" d="M140.2,55.44c-3.09-1.59-6.7-2.13-10.12-2.46-10.65-1.01-22.19,3.47-26.17,5.09l41.35,6.04c1.46-4.49-2.35-7.27-5.06-8.66Z"/>
  <path class="cls-1" d="M86.4,235.27c5.76-1.67,11.99-3.95,19.87-6.93-2.57-.63-4.99-1.83-8.67-1.98-4.98,3.31-8.14,6.6-11.2,8.91Z"/>
  <path class="cls-1" d="M162.06,30.72c-5.96.76-14.9,2.58-18.07,3.25l42.56,6.86c-2.87-4.48-7.72-9.61-19.08-10.34-1.81-.06-3.63,0-5.41.24Z"/>
  <path class="cls-1" d="M125.28,147.49c-2.8.62-5.55,1.41-8.25,2.38-.64.23-7.68,2.89-7.59,3.22.46,1.64.88,3.37,1.28,5.14h39.98c-.48-3.72-1.96-7.17-3.29-10.65-.13-.34-.26-.68-.53-.93-.31-.28-.73-.38-1.14-.45-1.13-.2-2.26-.24-3.41-.28-5.72-.19-11.47.35-17.06,1.58Z"/>
  <path class="cls-1" d="M174.45,189.58c.16-.11.32-.21.47-.32-.05.02-.11.04-.16.07-.1.08-.21.17-.31.25,0,0,0,0,0,0Z"/>
  <path class="cls-1" d="M170.97,72.69c-7.94.47-14.67,1.93-19.42,3.27.3.96.6,1.94.89,2.99l23.39,3.25,20.3,1.97c-3.68-6.01-8.64-9.69-19.77-11.58-1.69-.04-3.48-.02-5.39.09Z"/>
  <path class="cls-1" d="M160.51,126.23c.16,1.27.28,2.94.24,4.79,0,0,54.36,2.58,54.36,2.58-.23-.01-.94-1.01-1.12-1.2-4.1-4.24-9.09-6.95-14.81-8.37-4.68-1.16-9.61-1.82-14.54-2.11-1.94.12-3.9.32-5.85.6-7.36,1.03-13.41,2.36-18.27,3.72Z"/>
  <path class="cls-1" d="M260.41,153.74c-10.71,3.5-37.38,16.17-53.38,25.12-22.17,12.4-41.2,29.57-63.28,42.07-21.38,12.1-44.79,20.3-68.77,25.43-17.82,3.81-42.19,5-56.03,5.46-1.17.04-1.77.66,3.55,1.01,8.21.55,13.58.98,33.15.17,36.18-1.51,70.84-14.85,102.89-31.52,14.33-7.46,27.77-16.45,41.61-24.62,15.78-9.3,31.93-17.53,42.64-20.94,9.82-3.13.42,17.26-12.76,29.73-3.72,3.52-11.27,10.79-3.5,5.2,8.49-6.11,14.69-12.41,19.56-18.08,8.86-10.3,20.61-41.09,14.32-39.04Z"/>
  <path class="cls-1" d="M80.6,236.84c.81-2.17,2.87-6.69,4.22-10.48-1.22.15-2.42.35-3.62.61-5.39,1.14-10.57,3.26-15.49,5.71-3.03,1.51-5.98,3.16-8.92,4.83-1.47.84-2.93,1.68-4.4,2.52-.98.56-2.79,2.05-3.81,2.14,10.9-1.02,22.96-3.64,30.44-4.98.45-.08,1.03-.22,1.57-.35Z"/>
  <path class="cls-1" d="M273.69,104.33c-.84,0-1.57.01-2.27.03,5.56,9.09,7.45,18.09,8.03,22.34,4.14-3.28,8.2-6.53,11.86-9.46-2.74-3.36-11.07-12.88-17.63-12.9Z"/>
  <path class="cls-1" d="M266.21,116.12c-2.7-.53-5.25-.07-7.33.63,4.44,8.16,6.44,16.2,7.24,20.39,3.89-3,8.21-6.38,12.56-9.83-1.95-3.35-6.51-10.02-12.47-11.19Z"/>
  <path class="cls-1" d="M149.28,100.95c-.78-1.96-2.36-3.56-4.2-4.43-3.45-1.65-7.67-1.76-11.35-1.9-11.63-.44-24.56,4.88-31.57,8.29,0,0,47.48,4.09,47.48,4.09,1.12.08-.11-5.41-.36-6.04Z"/>
  <path class="cls-1" d="M101.49,131.74c-.67-2.24-21.36-5.73-38.35,7.63l34.89,1.8c1.87-3.01,4.12-7.2,3.45-9.44Z"/>
  <path class="cls-1" d="M101.08,94.59c-1.71-2.55-18.12-4.6-33.93,4.62l31.3,3.34c.63-1.41,3.15-5.06,2.63-7.96Z"/>
  <path class="cls-1" d="M99.12,185.69c.15,0,1.46-5.3.38-8.38-1.08-3.08-18.75-7.21-44.19,9.66l25.24-.21s18.56-1.07,18.57-1.07Z"/>
  <path class="cls-5" d="M166.94,8.49c5.99.83,14.43,2,14.43,2,0,0,.6.89,1.47,2.26-.75-1.19-1.3-2-1.47-2.26-.55-.82-2.06-3.08-2.46-3.15S139.61,0,139.09,0c-.7,0,1.08,3.5,1.08,3.5.03.03.08.07.15.12-.36-.64-.58-1.01-.58-1.01,0,0,20.51,4.96,27.19,5.88Z"/>
  <path class="cls-5" d="M232.03,155.69s.02.07.03.1c-.01-.03-.02-.06-.03-.1Z"/>
  <path class="cls-5" d="M307.66,105.75c-.79-.47-1.77.05-2.85.59-1.08.54-5.41,4.39-12.7,10.25-.56-4.26-2.75-15.46-11.07-26.38-14.95-19.62-67.4-52.98-67.4-52.98,0,0,27.91,21.43,32.64,25.89,4.72,4.46,11.94,11.28,17.71,22.69,2.36,4.67,2.86,8.72,2.68,11.94-15.79-18.92-48.79-37.77-48.79-37.77,0,0,11.1,8.38,15.82,12.84,4.72,4.46,11.94,11.28,17.71,22.69,2.63,5.2,3.37,10.51,3.44,14.82-.21-.29-.41-.59-.63-.88-14.95-19.62-32.72-27.45-32.72-27.45,0,0,8.66,7.61,12.46,13.25,2.73,4.05,6.3,10.29,8,16.26,3.51,12.3,1.85,18.05,1.85,18.05,0,0,4.9-3.19,10.08-2.44,5.18.75,9.44,7.07,11.46,10.6-5.83,4.48-10.54,7.95-12.36,8.94-3.68,2-11.44,5.21-20.8,9.47,0,0,0,0,0,0,0,0-30.32,11.3-57.4,33.18.05-.02.11-.04.16-.07-.16.11-.32.21-.47.32,0,0,0,0,0,0,0,0,0,0,0,0-16.68,13.03-37.76,28.68-37.76,28.68,0,0,5.02-13.64,8.92-25.05,3.71-10.84,9.34-27.4,6.8-39.76-2.14-10.38-7.29-19.84-7.29-19.84,0,0,47.62,7.4,76.83,3.79,0,0,.85,1.03,1.84,2.28-.68-.9-1.3-1.66-1.84-2.28-.66-.76-1.24-1.66-1.5-2.05,0,.01-.01.03-.02.04-1.7-3.77-5.25-6.35-8.79-8.26-8.46-4.56-17.67-5.82-27.01-5.22,4.93.29,9.87.95,14.54,2.11,5.72,1.42,10.71,4.12,14.81,8.37.18.19.89,1.19,1.12,1.2,0,0-54.36-2.58-54.36-2.58.04-1.85-.07-3.52-.24-4.79-10.89,3.04-15.76,6.19-15.76,6.19,0,0,8.14-21.14,8.27-32.5s-9.36-18.66-9.36-18.66c0,0,21.16,5.14,39.95,6.19,7.71.43,13.74-.06,17.4-.59.54-.08,1.25.19,2.09.73l-1.94-1.43c.11-.37.25-.97.4-1.73-.03-.08-4.47-11.32-25.21-11.84,11.13,1.89,16.09,5.57,19.77,11.58l-20.3-1.97-23.39-3.25c-.29-1.05-.59-2.03-.89-2.99-4.74,1.34-7.5,2.57-7.5,2.57,0,0,4.98-12.6,5.53-23.32.54-10.48-6.8-19.39-6.8-19.39,8.14,2.25,20.19,5.28,28.53,6.58,7.05,1.1,19.28.99,19.28.99l-1.14-1.43s-2.24-5-6.03-7.37c-3.4-2.12-9.57-3.9-15.94-4.1,11.36.73,16.21,5.86,19.08,10.34l-42.56-6.86c-.74.15-1.16.25-1.16.25,0,0,2.8-4.63,3.26-12.77.14-2.44-.48-5.28-1.38-8,.27,2,.44,4.13.39,6.14-.09,3.77-1.52,7.5-3.16,10.64,0,0-36.78-4.29-36.77-4.62-2.1-.28.94,1.78.71,12.2-.22,6.64-5.43,19.75-5.28,19.37-.52,1.36.26,3.98.65,5.31.88,3.02,2.61,6.03,2.67,9.22-.07-1.27-34.62-3.76-35.51-3.92-1.24-.23,1.66,5.46.48,13.49-.53,3.39-1.66,7.51-2.88,10.7-.83,2.18-1.95,4.42-2.51,6.68-.85,3.4,1.18,7.14,1.89,10.46.81,3.8,1.1,7.69.23,11.5-1.51,6.68-5.28,12.31-7.4,18.7-1.13,3.39,1.48,7.03,2.23,10.28.74,3.19.61,6.65.21,9.87-.59,4.83-2.02,9.51-3.68,14.06-1.54,4.22-4.09,8.1-5.45,12.33-1.04,3.23.29,6.03.96,9.2,1.72,8.07.91,16.58-1.38,24.45-1.12,3.85-2.82,7.45-4.27,11.17-.83,2.14-1.77,4.25-2.75,6.32-.3.64-2.06,5.14-2.7,5.18-3.92.24-8.3.04-11.23-.03-6.92-.17-14.05-.04-16.84.37-2.38.35-5.11,1.99-6.76,3.43-.78.69-3.87,4.56-.4,5.42,3.47.86,8.84.84,12.51,3.37,2.7,1.86,8.63,7.69,12.13,11.27-10.68.33-20.4-1.41-28.93-5.66-.45-.23-1.56-.84-1.82-.12-.26.73,1.26,2.12,1.66,2.52,3.78,3.85,8.73,6.07,13.73,7.86,13.6,4.89,27.92,7.77,42.36,8.28,9.23.32,18.47-.3,27.6-1.67,30.36-4.56,58.88-16.7,86.8-28.97,16.54-7.27,32.94-14.84,49.59-21.86,10.52-4.44,29.66-13.09,40.42-4.64,6.22,4.89-8.47,16.3-3.38,13.99,8.84-4.18,16.99-11.32,21.32-20.19,2.89-5.92,4.14-15.71-3.24-18.86-7.78-3.32-18.9,1.72-26.1,4.32,8.83-13.77,8.48-24.2,23.77-43.44.35-.44.46-.96.16-1.44-.83-1.31-1.9-4.51.17-11.33,2.95-9.74,11.4-16.87,15.05-19.77,3.65-2.9,15.78-12.9,16.52-13.79.82-.97,1.88-2.18,1.91-3.52.01-.74-.02-1.56-.72-1.97ZM134.09,216.88c-3.56,1.69-9.15,4.08-15.54,6.66.03-2.91.02-6.02-.07-8.94,5.68-2.8,11.54-5.27,17.31-6.98.73-.21,1.36-.37,2.06-.57-1.35,3.59-2.62,6.89-3.77,9.83ZM90.46,228s13.18-30.41,13.05-45.64-8.37-21.64-8.37-21.64c0,0,15.66,2.04,21.28,6.03,14.24,10.12,9.21,20.07,1.03,32.08-10.79,15.83-26.99,29.17-26.99,29.17ZM106.28,228.34c-7.88,2.98-14.12,5.25-19.87,6.93,3.07-2.32,6.23-5.61,11.2-8.91,3.68.15,6.1,1.36,8.67,1.98ZM100.85,106.1s12.6,1.77,16.77,5.51c7.28,6.55,2.64,20.24-1.65,25.98-6.53,8.73-21.53,19.79-21.53,19.79,0,0,9.9-18.69,10.51-28.32s-4.1-22.97-4.1-22.97ZM145.75,146.19c.41.08.84.17,1.14.45.26.24.4.59.53.93,1.32,3.47,2.8,6.93,3.29,10.65h-39.98c-.4-1.76-.83-3.49-1.28-5.14-.09-.33,6.95-2.99,7.59-3.22,2.7-.96,5.45-1.76,8.25-2.38,5.59-1.24,11.34-1.77,17.06-1.58,1.14.04,2.28.08,3.41.28ZM130.07,52.98c3.42.33,7.03.87,10.12,2.46,2.71,1.39,6.52,4.17,5.06,8.66l-41.35-6.04c3.98-1.62,15.52-6.1,26.17-5.09ZM108.38,76.71c-.91-7.54-3.63-14.84-3.63-14.84,0,0,9.53,1.17,12.54,9.4,4.91,13.41-15.13,28.67-15.13,28.67,0,0,7.52-12.43,6.22-23.24ZM133.73,94.61c3.69.14,7.9.26,11.35,1.9,1.84.88,3.42,2.47,4.2,4.43.25.63,1.49,6.13.36,6.04,0,0-47.48-4.09-47.48-4.09,7.01-3.4,19.94-8.73,31.57-8.29ZM101.08,94.59c.52,2.9-2,6.56-2.63,7.96l-31.3-3.34c15.81-9.22,32.22-7.17,33.93-4.62ZM101.49,131.74c.67,2.24-1.58,6.42-3.45,9.44l-34.89-1.8c16.99-13.37,37.68-9.87,38.35-7.63ZM99.5,177.3c1.08,3.08-.23,8.37-.38,8.38,0,0-18.57,1.07-18.57,1.07l-25.24.21c25.44-16.87,43.11-12.74,44.19-9.66ZM52.4,240.02c1.47-.84,2.93-1.68,4.4-2.52,2.94-1.67,5.89-3.33,8.92-4.83,4.92-2.45,10.1-4.57,15.49-5.71,1.19-.25,2.4-.46,3.62-.61-1.36,3.79-3.41,8.31-4.22,10.48-.53.12-1.11.26-1.57.35-7.48,1.35-19.54,3.96-30.44,4.98,1.02-.1,2.83-1.59,3.81-2.14ZM246.1,192.78c-4.87,5.66-11.06,11.97-19.56,18.08-7.77,5.59-.23-1.68,3.5-5.2,13.17-12.47,22.58-32.86,12.76-29.73-10.71,3.41-26.86,11.64-42.64,20.94-13.84,8.16-27.28,17.16-41.61,24.62-32.05,16.67-66.71,30.01-102.89,31.52-19.57.82-24.94.38-33.15-.17-5.32-.36-4.72-.97-3.55-1.01,13.84-.46,38.21-1.65,56.03-5.46,23.98-5.13,47.4-13.33,68.77-25.43,22.08-12.5,41.1-29.67,63.28-42.07,16-8.95,42.67-21.62,53.38-25.12,6.3-2.06-5.46,28.74-14.32,39.04ZM266.12,137.14c-.8-4.19-2.8-12.22-7.24-20.39,2.08-.7,4.63-1.17,7.33-.63,5.95,1.17,10.51,7.84,12.47,11.19-4.35,3.45-8.67,6.83-12.56,9.83ZM279.45,126.7c-.59-4.25-2.47-13.25-8.03-22.34.7-.02,1.43-.03,2.27-.03,6.56.02,14.88,9.54,17.63,12.9-3.66,2.94-7.73,6.19-11.86,9.46Z"/>
  <path class="cls-3" d="M145.12,133.6s5.15,9.46,7.29,19.84c2.55,12.36-3.09,28.91-6.8,39.76-3.9,11.41-8.92,25.05-8.92,25.05,0,0,21.08-15.65,37.76-28.68,0,0,0,0,0,0,.1-.08.21-.17.31-.25,27.08-21.88,57.4-33.18,57.4-33.18h0s-.04-.13-.11-.36c0-.03-.02-.06-.03-.1-.49-1.62-2.35-7.36-5.52-12.36-.55-.87-1.71-2.37-2.72-3.65-.99-1.25-1.84-2.28-1.84-2.28-29.21,3.6-76.83-3.79-76.83-3.79Z"/>
  <path class="cls-6" d="M201.02,86.87c-3.66.52-9.69,1.01-17.4.59-18.79-1.04-39.95-6.19-39.95-6.19,0,0,9.49,7.3,9.36,18.66s-8.27,32.5-8.27,32.5c0,0,4.87-3.15,15.76-6.19,4.86-1.36,10.91-2.69,18.27-3.72,1.95-.27,3.9-.47,5.85-.6,9.34-.6,18.55.66,27.01,5.22,3.54,1.91,7.09,4.49,8.79,8.26,0-.01.01-.03.02-.04,2.03-4.89,2.12-17.88-.48-24.57-3.17-8.15-12.06-20.11-16.86-23.18-.84-.54-1.56-.81-2.09-.73Z"/>
  <path class="cls-4" d="M171.3,42.4c-8.34-1.3-20.39-4.33-28.53-6.58,0,0,7.34,8.91,6.8,19.39-.55,10.72-5.53,23.32-5.53,23.32,0,0,2.76-1.23,7.5-2.57,4.74-1.34,11.47-2.8,19.42-3.27,1.91-.11,3.7-.13,5.39-.09,20.74.51,25.18,11.75,25.21,11.84,0,0,0,0,0,0,0,0,3.11-9.07.58-19.37-3-12.21-11.56-21.69-11.56-21.69,0,0-12.23.11-19.28-.99Z"/>
  <path class="cls-2" d="M146.09,21.44c-.47,8.14-3.26,12.77-3.26,12.77,0,0,.42-.09,1.16-.25,3.17-.66,12.12-2.49,18.07-3.25,1.78-.23,3.6-.29,5.41-.24,6.38.2,12.54,1.98,15.94,4.1,3.8,2.37,6.03,7.37,6.03,7.37,0,0,2.97-8.68-.26-17.53-1.28-3.51-4.46-8.73-6.35-11.69-.87-1.37-1.47-2.26-1.47-2.26,0,0-8.44-1.17-14.43-2-6.68-.92-27.19-5.88-27.19-5.88,0,0,.22.37.58,1.01.98,1.77,3.01,5.66,4.38,9.82.9,2.73,1.52,5.57,1.38,8Z"/>
  <path class="cls-4" d="M117.29,71.27c-3.01-8.23-12.54-9.4-12.54-9.4,0,0,2.72,7.29,3.63,14.84,1.31,10.8-6.22,23.24-6.22,23.24,0,0,20.04-15.26,15.13-28.67Z"/>
  <path class="cls-6" d="M94.44,157.39s15-11.06,21.53-19.79c4.29-5.74,8.93-19.44,1.65-25.98-4.17-3.74-16.77-5.51-16.77-5.51,0,0,4.71,13.35,4.1,22.97s-10.51,28.32-10.51,28.32Z"/>
  <path class="cls-3" d="M116.42,166.75c-5.62-4-21.28-6.03-21.28-6.03,0,0,8.23,6.4,8.37,21.64s-13.05,45.64-13.05,45.64c0,0,16.2-13.34,26.99-29.17,8.18-12,13.21-21.96-1.03-32.08Z"/>
</svg>